{"title":"Terminaatur 3-Masinate Mäss 2003 EESTI SUB","uid":8917780,"size":1600985310,"categoryP":"video","categoryS":"movies","magnet":"?xt=urn:btih:c5d7ff994bc6ed5bc26b9cad9a2634dd3ff2f50b&amp;dn=Terminaatur+3-Masinate+M%26auml%3Bss+2003+EESTI+SUB&amp;tr=udp%3A%2F%2Ftracker.openbittorrent.com%3A80&amp;tr=udp%3A%2F%2Fopen.demonii.com%3A1337&amp;tr=udp%3A%2F%2Ftracker.coppersurfer.tk%3A6969&amp;tr=udp%3A%2F%2Fexodus.desync.com%3A6969","seeders":0,"leechers":1,"uploader":"immri","files":1,"time":1379184399,"description":"Format                                   : AVI\nFormat/Info                              : Audio Video Interleave\nFormat profile                           : OpenDML\nFile size                                : 1.49 GiB\nDuration                                 : 1h 44mn\nOverall bit rate                         : 2 039 Kbps\nWriting application                      : Lavf52.61.0\n\nVideo\nID                                       : 0\nFormat                                   : MPEG-4 Visual\nFormat profile                           : Simple@L3\nFormat settings, BVOP                    : No\nFormat settings, QPel                    : No\nFormat settings, GMC                     : No warppoints\nFormat settings, Matrix                  : Default (H.263)\nCodec ID                                 : XVID\nCodec ID/Hint                            : XviD\nDuration                                 : 1h 44mn\nBit rate                                 : 1 898 Kbps\nWidth                                    : 720 pixels\nHeight                                   : 576 pixels\nDisplay aspect ratio                     : 4:3\nFrame rate                               : 25.000 fps\nStandard                                 : PAL\nColor space                              : YUV\nChroma subsampling                       : 4:2:0\nBit depth                                : 8 bits\nScan type                                : Progressive\nCompression mode                         : Lossy\nBits/(Pixel*Frame)                       : 0.183\nStream size                              : 1.39 GiB (93%)\nWriting library                          : XviD 1.2.1 (UTC 2008-12-04)\n\nAudio\nID                                       : 1\nFormat                                   : MPEG Audio\nFormat version                           : Version 1\nFormat profile                           : Layer 3\nMode                                     : Joint stereo\nMode extension                           : MS Stereo\nCodec ID                                 : 55\nCodec ID/Hint                            : MP3\nDuration                                 : 1h 44mn\nBit rate mode                            : Constant\nBit rate                                 : 128 Kbps\nChannel(s)                               : 2 channels\nSampling rate                            : 44.1 KHz\nCompression mode                         : Lossy\nStream size                              : 95.8 MiB (6%)\nAlignment                                : Aligned on interleaves\nInterleave, duration                     : 26 ms (0.65 video frame)\nInterleave, preload duration             : 52 ms\nWriting library                          : LAME3.97\n\n","torrent":{"xt":"urn:btih:c5d7ff994bc6ed5bc26b9cad9a2634dd3ff2f50b","amp;dn":"Terminaatur+3-Masinate+M%26auml%3Bss+2003+EESTI+SUB","amp;tr":["udp%3A%2F%2Ftracker.openbittorrent.com%3A80","udp%3A%2F%2Fopen.demonii.com%3A1337","udp%3A%2F%2Ftracker.coppersurfer.tk%3A6969","udp%3A%2F%2Fexodus.desync.com%3A6969"],"infoHash":"c5d7ff994bc6ed5bc26b9cad9a2634dd3ff2f50b","infoHashBuffer":{"type":"Buffer","data":[197,215,255,153,75,198,237,91,194,107,156,173,154,38,52,221,63,242,245,11]},"announce":[],"urlList":[]}}